<svg xmlns="http://www.w3.org/2000/svg" viewBox="0 0 24 24" fill="currentColor">
<path d="m5.4 3.8c2.66 2 5.52 6.046 6.57 8.22 1.05-2.174 3.91-6.222 6.57-8.22 1.92-1.44 5.03-2.556 5.03 0.992 0 0.708-0.406 5.952-0.644 6.803-0.828 2.959-3.846 3.714-6.53 3.257 4.692 0.799 5.886 3.444 3.308 6.089-4.896 5.024-7.036-1.26-7.586-2.87-0.101-0.295-0.148-0.433-0.148-0.316-0.001-0.117-0.048 0.021-0.148 0.316-0.549 1.61-2.69 7.894-7.585 2.87-2.578-2.645-1.384-5.29 3.308-6.089-2.684 0.457-5.702-0.298-6.53-3.257-0.238-0.851-0.644-6.095-0.644-6.803 0-3.548 3.11-2.432 5.03-0.992z"/>
</svg>